<svg aria-hidden="true" style="position: absolute; width: 0; height: 0; overflow: hidden;" version="1.1" xmlns="http://www.w3.org/2000/svg" xmlns:xlink="http://www.w3.org/1999/xlink">
<defs>
<symbol id="reddit" viewBox="0 0 32 32">
<path d="M12.594 19.094c-0.863 0-1.556-0.694-1.556-1.538 0-0.862 0.694-1.556 1.556-1.556 0.85 0 1.538 0.694 1.538 1.556 0 0.85-0.694 1.538-1.538 1.538zM31.5 16c0 8.563-6.938 15.5-15.5 15.5s-15.5-6.938-15.5-15.5c0-8.563 6.938-15.5 15.5-15.5s15.5 6.938 15.5 15.5zM23.231 13.425c-0.587 0-1.106 0.244-1.488 0.625-1.4-0.969-3.287-1.594-5.381-1.663l1.087-4.894 3.463 0.781c0 0.85 0.694 1.538 1.537 1.538 0.863 0 1.556-0.706 1.556-1.556s-0.694-1.556-1.556-1.556c-0.606 0-1.125 0.363-1.381 0.863l-3.825-0.85c-0.188-0.050-0.381 0.088-0.431 0.275l-1.194 5.4c-2.075 0.088-3.944 0.706-5.344 1.675-0.381-0.4-0.919-0.637-1.506-0.637-2.181 0-2.894 2.931-0.9 3.925-0.069 0.313-0.106 0.637-0.106 0.969 0 3.287 3.7 5.95 8.25 5.95 4.569 0 8.269-2.663 8.269-5.95 0-0.331-0.038-0.675-0.119-0.988 1.956-1 1.237-3.906-0.931-3.906zM18.925 20.688c-1.137 1.137-4.756 1.119-5.85 0-0.137-0.137-0.381-0.137-0.519 0-0.156 0.156-0.156 0.4 0 0.538 1.425 1.425 5.456 1.425 6.888 0 0.156-0.138 0.156-0.381 0-0.538-0.138-0.137-0.381-0.137-0.519 0zM19.406 16c-0.85 0-1.538 0.694-1.538 1.556 0 0.85 0.694 1.538 1.538 1.538 0.863 0 1.556-0.694 1.556-1.538 0-0.862-0.688-1.556-1.556-1.556z"></path>
</symbol>
<symbol id="facebook" viewBox="0 0 32 32">
<path fill="#fff" style="fill: var(--color1, #fff)" d="M32 16c0-8.837-7.163-16-16-16s-16 7.163-16 16c0 7.988 5.85 14.606 13.5 15.806v-11.181h-4.063v-4.625h4.063v-3.525c0-4.009 2.388-6.225 6.044-6.225 1.75 0 3.581 0.313 3.581 0.313v3.938h-2.019c-1.988 0-2.606 1.234-2.606 2.5v3h4.437l-0.709 4.625h-3.728v11.181c7.65-1.2 13.5-7.819 13.5-15.806z"></path>
<path fill="#0E0E0E" style="fill: var(--color2, #0E0E0E)" d="M22.228 20.625l0.709-4.625h-4.437v-3c0-1.266 0.619-2.5 2.606-2.5h2.019v-3.938c0 0-1.831-0.313-3.581-0.313-3.656 0-6.044 2.216-6.044 6.225v3.525h-4.063v4.625h4.063v11.181c0.816 0.128 1.65 0.194 2.5 0.194s1.684-0.066 2.5-0.194v-11.181h3.728z"></path>
</symbol>
<symbol id="mastercard" viewBox="0 0 50 32">
<path fill="#fff" style="fill: var(--color1, #fff)" d="M13.144 13.878c-0.924 0-1.632 0.297-1.632 0.297l-0.196 1.163c0 0 0.584-0.238 1.469-0.238 0.502 0 0.869 0.056 0.869 0.464 0 0.248-0.045 0.34-0.045 0.34s-0.396-0.032-0.579-0.032c-1.166 0-2.39 0.497-2.39 1.999 0 1.184 0.803 1.454 1.301 1.454 0.951 0 1.361-0.617 1.382-0.619l-0.044 0.516h1.187l0.529-3.716c-0.001-1.578-1.374-1.629-1.851-1.629zM12.478 18.194c-0.418 0-0.527-0.319-0.527-0.51 0-0.369 0.2-0.813 1.188-0.813 0.231 0.001 0.255 0.024 0.293 0.031 0.026 0.227-0.141 1.291-0.954 1.291zM16.688 15.563c0 0.674 1.606 0.343 1.606 2.020 0 1.793-1.735 1.714-2.038 1.714-1.131 0-1.48-0.156-1.513-0.164l0.18-1.181c0.002-0.009 0.568 0.206 1.197 0.206 0.363 0 0.835-0.036 0.835-0.469 0-0.652-1.687-0.495-1.687-2.041 0-1.363 1.011-1.762 2.008-1.762 0.77 0 1.244 0.106 1.244 0.106l-0.17 1.191c0 0-0.731-0.060-0.92-0.060-0.48 0.001-0.741 0.106-0.741 0.441zM19.887 17.616c-0.030 0.184 0.022 0.435 0.491 0.435 0.12 0 0.255-0.040 0.348-0.040l-0.169 1.147c-0.135 0.038-0.519 0.174-1.010 0.177-0.628 0.006-1.074-0.347-1.074-1.144 0-0.535 0.766-4.944 0.796-4.973h1.347l-0.137 0.787h0.672l-0.172 1.269h-0.713l-0.378 2.34zM25.086 17.059c0 0 0.177-0.874 0.177-1.23 0-0.889-0.442-1.973-1.921-1.973-1.355 0.001-2.359 1.463-2.359 3.115 0 1.907 1.257 2.36 2.328 2.36 0.989 0 1.423-0.222 1.423-0.222l0.238-1.301c0 0-0.752 0.332-1.431 0.332-1.447 0-1.194-1.081-1.194-1.081h2.739zM23.347 15.065c0.761 0 0.62 0.856 0.62 0.924h-1.496c0-0.087 0.142-0.924 0.876-0.924zM11.123 12.802l-1.063 6.426h-1.38l0.768-4.844-1.732 4.844h-0.928l-0.12-4.844-0.82 4.844h-1.3l1.078-6.426h1.967l0.069 3.943 1.328-3.943h2.134zM28.172 11.956h-6.998c0.069-0.131 0.314-0.659 0.682-1.358h5.77c0.207 0.439 0.389 0.892 0.547 1.358zM26.896 9.267h-4.29c0.275-0.455 0.579-0.92 0.902-1.357h2.405c0.356 0.43 0.686 0.883 0.983 1.357zM24.657 25.399c-0.469-0.424-0.893-0.893-1.294-1.385h2.614c-0.394 0.483-0.824 0.936-1.285 1.357h-0.003c0 0.001 0.001 0.001 0.001 0.001-0.010 0.009-0.022 0.018-0.032 0.027zM26.911 22.708h-4.491c-0.273-0.437-0.528-0.886-0.748-1.357h5.976c-0.219 0.469-0.465 0.921-0.737 1.357zM28.513 13.958c-0.179 0.365-0.337 0.7-0.501 1.565-0.935-0.331-1.009 1.482-1.401 3.716h-1.383l0.841-5.23h1.255l-0.121 0.758c0 0 0.447-0.824 1.051-0.824 0.176-0.002 0.26 0.016 0.26 0.016zM31.008 18.017c0.454 0 1.114-0.331 1.114-0.331l-0.241 1.472c0 0-0.725 0.184-1.179 0.184-1.609 0-2.425-1.111-2.425-2.794 0-2.538 1.513-3.89 3.069-3.89 0.702 0 1.518 0.33 1.518 0.33l-0.22 1.429c0 0-0.551-0.386-1.236-0.386-0.917 0-1.74 0.876-1.74 2.469 0 0.784 0.383 1.515 1.34 1.515zM44.164 18.484c-0.066 0.035-0.116 0.086-0.153 0.152s-0.055 0.134-0.055 0.205 0.018 0.138 0.055 0.203c0.036 0.065 0.086 0.116 0.151 0.153s0.133 0.054 0.203 0.054c0.072 0 0.14-0.018 0.204-0.054s0.115-0.088 0.151-0.153c0.038-0.065 0.054-0.132 0.054-0.203s-0.018-0.14-0.054-0.205c-0.036-0.066-0.088-0.117-0.154-0.152s-0.131-0.053-0.201-0.053c-0.067 0-0.134 0.018-0.201 0.053zM44.661 18.669c0.031 0.055 0.047 0.112 0.047 0.17s-0.015 0.116-0.045 0.17c-0.030 0.054-0.072 0.095-0.127 0.128-0.054 0.030-0.11 0.046-0.169 0.046s-0.116-0.016-0.169-0.046c-0.055-0.031-0.096-0.073-0.127-0.128s-0.045-0.111-0.045-0.17 0.015-0.115 0.047-0.17c0.031-0.054 0.072-0.096 0.128-0.127s0.111-0.044 0.168-0.044c0.057 0 0.113 0.015 0.166 0.044 0.056 0.031 0.097 0.072 0.128 0.127zM39.189 17.116c0 1.106 0.549 2.189 1.671 2.189 0.808 0 1.255-0.564 1.255-0.564l-0.058 0.482h1.311l1.030-6.416-1.352 0.003-0.291 1.805c0 0-0.506-0.702-1.301-0.702-1.236 0.001-2.264 1.492-2.264 3.203zM42.419 16.33c0 0.713-0.352 1.665-1.082 1.665-0.486 0-0.713-0.407-0.713-1.047 0-1.046 0.469-1.736 1.062-1.736 0.484 0.001 0.733 0.334 0.733 1.119zM44.612 23.087c-0.010-0.009-0.022-0.018-0.038-0.023 0.038-0.003 0.069-0.017 0.092-0.040s0.034-0.052 0.034-0.084c0-0.023-0.007-0.045-0.020-0.065s-0.032-0.035-0.056-0.043c-0.022-0.009-0.059-0.013-0.111-0.013h-0.152v0.442h0.072v-0.188h0.041c0.024 0 0.044 0.005 0.056 0.016 0.018 0.015 0.045 0.049 0.075 0.102l0.038 0.070h0.088l-0.054-0.087c-0.026-0.040-0.048-0.069-0.066-0.087zM44.518 23.014h-0.087v-0.133h0.082c0.034 0 0.057 0.003 0.070 0.008s0.023 0.013 0.031 0.023c0.007 0.010 0.010 0.022 0.010 0.034 0 0.020-0.007 0.038-0.022 0.050s-0.044 0.018-0.084 0.018zM48.052 0h-46.782c-0.702 0-1.27 0.569-1.27 1.271v29.458c0 0.702 0.568 1.271 1.27 1.271h46.782c0.702 0 1.27-0.569 1.27-1.271v-29.458c0-0.702-0.568-1.271-1.27-1.271zM44.894 23.237c-0.037 0.066-0.086 0.117-0.151 0.153s-0.133 0.054-0.203 0.054c-0.072 0-0.14-0.018-0.204-0.054s-0.114-0.086-0.152-0.153c-0.036-0.064-0.054-0.132-0.054-0.203s0.018-0.138 0.055-0.205c0.036-0.066 0.088-0.116 0.153-0.152 0.066-0.034 0.132-0.052 0.202-0.052s0.135 0.018 0.2 0.052c0.066 0.036 0.117 0.086 0.153 0.152s0.054 0.135 0.054 0.205c0 0.070-0.016 0.14-0.052 0.203zM45.809 16c0.002 6.998-5.662 12.674-12.654 12.676-3.27 0.001-6.251-1.24-8.497-3.278-2.246 2.034-5.221 3.274-8.485 3.274-6.987 0-12.658-5.676-12.658-12.672 0-6.968 5.626-12.628 12.577-12.673 0.027 0 0.054 0 0.081 0 3.264 0 6.24 1.24 8.486 3.274 2.245-2.035 5.223-3.276 8.49-3.277 6.991-0.003 12.66 5.67 12.661 12.67-0.002 0.002-0.002 0.004-0.002 0.006zM44.187 18.626v0.441h0.072v-0.187h0.041c0.025 0 0.045 0.005 0.058 0.015 0.018 0.016 0.043 0.049 0.075 0.104l0.038 0.069h0.088l-0.054-0.087c-0.025-0.041-0.048-0.070-0.065-0.087-0.010-0.010-0.022-0.017-0.038-0.023 0.038-0.003 0.068-0.017 0.091-0.040s0.035-0.052 0.035-0.084c0-0.022-0.007-0.045-0.021-0.065s-0.032-0.034-0.054-0.043c-0.022-0.009-0.060-0.013-0.112-0.013h-0.154zM44.441 18.716c0.008 0.011 0.011 0.021 0.011 0.036 0 0.019-0.008 0.036-0.021 0.048-0.017 0.013-0.044 0.018-0.085 0.018h-0.086v-0.133h0.080c0.035 0 0.058 0.003 0.072 0.007 0.011 0.006 0.022 0.012 0.029 0.024zM34.991 13.878c-0.926 0-1.633 0.297-1.633 0.297l-0.197 1.163c0 0 0.585-0.238 1.469-0.238 0.502 0 0.87 0.056 0.87 0.464 0 0.248-0.046 0.34-0.046 0.34s-0.395-0.032-0.58-0.032c-1.165 0-2.388 0.497-2.388 1.999 0 1.184 0.803 1.454 1.301 1.454 0.95 0 1.361-0.617 1.382-0.619l-0.045 0.516h1.186l0.529-3.716c0.003-1.578-1.372-1.629-1.849-1.629zM34.327 18.194c-0.419 0-0.527-0.319-0.527-0.51 0-0.369 0.2-0.813 1.188-0.813 0.23 0.001 0.254 0.024 0.293 0.031 0.025 0.227-0.143 1.291-0.954 1.291zM39.327 15.522c-0.935-0.331-1.007 1.481-1.401 3.716h-1.383l0.841-5.23h1.256l-0.12 0.758c0 0 0.448-0.824 1.051-0.824 0.176 0 0.259 0.017 0.259 0.017-0.179 0.365-0.338 0.699-0.503 1.563z"></path>
</symbol>
<symbol id="visa" viewBox="0 0 49 32">
<path fill="#fff" style="fill: var(--color1, #fff)" d="M45.077 32h-41.816c-1.776 0-3.217-1.433-3.217-3.2v-25.6c0-1.767 1.441-3.2 3.217-3.2h41.816c1.776 0 3.217 1.433 3.217 3.2v25.6c0 1.767-1.441 3.2-3.217 3.2zM23.954 19.683l-0.481 3c1.059 0.451 2.29 0.713 3.584 0.713 0.103 0 0.205-0.001 0.307-0.005h-0.015c0.118 0.007 0.255 0.011 0.394 0.011 1.486 0 2.864-0.464 3.995-1.255l-0.023 0.015c1.027-0.757 1.686-1.959 1.686-3.313 0-0.007 0-0.013 0-0.020v0.001c0-1.467-0.986-2.685-2.931-3.627-0.571-0.277-1.059-0.568-1.517-0.896l0.031 0.021c-0.265-0.173-0.442-0.46-0.46-0.789v-0.003c0.021-0.347 0.221-0.643 0.508-0.8l0.005-0.003c0.378-0.219 0.831-0.348 1.316-0.348 0.056 0 0.113 0.001 0.169 0.005h0.099c0.031 0 0.067-0.001 0.103-0.001 0.863 0 1.682 0.185 2.421 0.517l-0.038-0.015 0.314 0.167 0.481-2.895c-0.905-0.356-1.954-0.563-3.052-0.563-0.021 0-0.044 0-0.066 0h0.004c-0.086-0.004-0.186-0.007-0.287-0.007-1.469 0-2.831 0.463-3.944 1.249l0.021-0.015c-1.008 0.715-1.658 1.872-1.658 3.181v0.007c-0.013 1.411 1.008 2.629 3.037 3.627 0.536 0.233 0.998 0.519 1.413 0.861l-0.009-0.008c0.235 0.197 0.386 0.487 0.398 0.811v0.005c0 0.425-0.255 0.791-0.622 0.955l-0.007 0.003c-0.402 0.211-0.879 0.333-1.386 0.333-0.020 0-0.042 0-0.062 0h0.003c-0.029 0-0.066 0-0.1 0-1.149 0-2.237-0.253-3.213-0.707l0.047 0.020-0.46-0.229-0.007-0.005zM37.524 21.204h4.443c0.071 0.305 0.211 0.972 0.419 2h3.226l-2.807-13.375h-2.681c-0.047-0.004-0.102-0.007-0.158-0.007-0.753 0-1.398 0.464-1.661 1.12l-0.004 0.012-5.147 12.249h3.646l0.732-1.999-0.009-0.001zM20.002 9.829l-2.179 13.375h3.477l2.178-13.375h-3.475zM6.641 12.559l2.828 10.624h3.664l5.462-13.353h-3.68l-3.396 9.125-0.357-1.855-1.212-6.145c-0.122-0.652-0.689-1.14-1.371-1.14-0.070 0-0.139 0.005-0.206 0.015l0.008-0.001h-5.612l-0.042 0.271c4.321 1.092 7.16 3.448 8.438 7-0.414-1.056-1.019-1.956-1.777-2.699l-0.001-0.001c-0.76-0.776-1.673-1.399-2.69-1.824l-0.054-0.020-0.003 0.004zM41.403 18.453h-2.895c0.196-0.514 0.657-1.758 1.383-3.733l0.062-0.188c0.056-0.139 0.126-0.32 0.214-0.541s0.147-0.403 0.188-0.541l0.252 1.145 0.795 3.853 0.001 0.005z"></path>
</symbol>
<symbol id="paypal" viewBox="0 0 117 32">
<path fill="#fff" style="fill: var(--color1, #fff)" d="M21.471 5.766c-0.376-0.739-0.971-1.349-1.709-1.807-0.77-0.462-1.68-0.786-2.719-0.978-1.058-0.188-2.279-0.272-3.694-0.286l-6.534 0.004c-0.679 0.009-1.345 0.527-1.504 1.17l-4.396 18.765c-0.16 0.634 0.267 1.166 0.946 1.166h3.129c0.679 0 1.352-0.516 1.502-1.166l1.073-4.556c0.144-0.634 0.814-1.164 1.5-1.164h0.896c3.827-0.005 6.789-0.77 8.918-2.305 2.14-1.536 3.195-3.567 3.195-6.081-0.002-1.101-0.187-2.026-0.602-2.763zM14.722 11.897c-0.946 0.679-2.261 1.018-3.957 1.018h-0.766c-0.681 0-1.099-0.527-0.95-1.17l0.941-3.984c0.132-0.639 0.818-1.168 1.49-1.164l1.026-0.007c1.197 0 2.111 0.203 2.721 0.596 0.604 0.389 0.907 1.007 0.903 1.827 0.018 1.246-0.467 2.204-1.409 2.883zM57.738 9.447l-12.467 20.661c-0.401 0.645-1.288 1.166-1.962 1.166l-3.241 0.005c-0.672 0-0.893-0.525-0.483-1.168l2.771-4.73c0 0 0.223-0.275 0.025-1.816-0.426-2.794-2.555-14.664-2.555-14.664-0.153-0.643 0.262-1.17 0.937-1.17l2.803-0.004c0.859 0 1.55 0.554 1.705 1.202l1.395 8.234 0.52 0.007c0.435-0.757 4.916-8.292 4.916-8.292 0.428-0.636 1.294-1.17 1.969-1.17 0 0 3.011 0.009 3.751 0 1.114-0.025-0.084 1.742-0.084 1.742zM78.293 5.835c-0.392-0.744-0.98-1.344-1.723-1.813-0.761-0.465-1.664-0.791-2.719-0.978-1.037-0.181-2.275-0.279-3.681-0.281l-6.543 0.004c-0.681 0.011-1.336 0.529-1.493 1.166l-4.401 18.773c-0.16 0.637 0.278 1.164 0.944 1.164l3.134-0.004c0.666 0.004 1.347-0.518 1.504-1.161l1.060-4.558c0.155-0.634 0.827-1.168 1.504-1.164h0.896c3.831 0 6.801-0.773 8.939-2.303 2.113-1.548 3.182-3.573 3.182-6.090-0.011-1.097-0.205-2.023-0.602-2.754zM71.545 11.975c-0.944 0.666-2.261 1.005-3.947 1.005h-0.779c-0.672 0.007-1.108-0.529-0.957-1.168l0.948-3.978c0.139-0.636 0.818-1.17 1.495-1.164l1.014-0.007c1.203 0.007 2.106 0.201 2.721 0.594 0.613 0.393 0.903 1.009 0.909 1.827 0.007 1.246-0.465 2.207-1.404 2.89zM36.558 8.448c-1.181-0.652-3.045-0.978-5.593-0.978-1.26 0-2.516 0.096-3.786 0.288-0.937 0.141-1.028 0.168-1.605 0.29-1.19 0.255-1.377 1.418-1.377 1.418l-0.383 1.543c-0.217 0.985 0.362 0.947 0.604 0.864 0.52-0.152 0.809-0.308 1.871-0.54 1.014-0.226 2.083-0.395 2.931-0.384 1.251 0 2.208 0.13 2.847 0.393 0.629 0.268 0.944 0.728 0.944 1.394l-0.055 0.433-0.451 0.272c-1.775 0.11-3.059 0.27-4.615 0.491-1.523 0.208-2.858 0.572-3.968 1.070-1.192 0.514-2.076 1.204-2.694 2.082-0.597 0.882-0.896 1.952-0.896 3.207 0 1.181 0.433 2.157 1.274 2.912 0.846 0.741 1.962 1.103 3.298 1.103 0.846-0.004 1.5-0.069 1.965-0.179l1.516-0.511 1.283-0.697 1.181-0.764 0.016 0.022-0.119 0.491-0.007 0.020v0.004c-0.128 0.599 0.242 1.090 0.836 1.148l0.011 0.013h2.906l0.041-0.018c0.624-0.071 1.21-0.563 1.347-1.148l2.281-9.677 0.118-0.788 0.055-0.739c0.009-1.371-0.595-2.387-1.778-3.037zM31.512 19.329l-0.488 0.63-1.231 0.623c-0.579 0.23-1.128 0.346-1.636 0.346-0.77 0-1.374-0.109-1.782-0.333l-0.604-1.15c0-0.623 0.146-1.117 0.458-1.496l1.326-0.884c0.568-0.188 1.26-0.346 2.063-0.456 0.716-0.087 2.129-0.246 2.313-0.25l0.217 0.373c-0.041 0.212-0.442 1.856-0.636 2.597zM109.645 1.652h1.046v0.422h-1.046v1.365l0.005 0.369 0.075 0.246 0.164 0.156 0.321 0.049 0.262-0.036 0.196-0.058h0.027v0.449l-0.317 0.060-0.299 0.025-0.711-0.25-0.242-0.786v-1.588h-0.351v-0.422h0.351v-0.851h0.517v0.851zM93.393 8.462c-1.187-0.652-3.049-0.98-5.591-0.98-1.26 0-2.518 0.096-3.783 0.295-0.939 0.134-1.032 0.163-1.611 0.284-1.187 0.252-1.372 1.42-1.372 1.42l-0.383 1.541c-0.214 0.985 0.351 0.94 0.615 0.864 0.522-0.152 0.802-0.302 1.855-0.543 1.010-0.223 2.088-0.389 2.938-0.384 1.247 0 2.204 0.132 2.84 0.395 0.633 0.268 0.944 0.732 0.944 1.391l-0.048 0.431-0.447 0.279c-1.794 0.105-3.079 0.266-4.62 0.487-1.518 0.208-2.858 0.57-3.97 1.070-1.187 0.516-2.083 1.206-2.694 2.086-0.604 0.882-0.898 1.95-0.898 3.194 0 1.19 0.428 2.166 1.281 2.917 0.85 0.739 1.956 1.11 3.291 1.11 0.841-0.009 1.495-0.063 1.962-0.181l1.511-0.505 1.294-0.697 1.171-0.773 0.021 0.025-0.107 0.496-0.011 0.009 0.005 0.009c-0.141 0.599 0.23 1.094 0.832 1.148l0.005 0.011h0.055c0.394 0 1.757 0 2.407 0h0.442l0.048-0.016c0.618-0.074 1.201-0.565 1.331-1.157l2.288-9.664 0.121-0.793 0.066-0.741c0.002-1.367-0.595-2.379-1.787-3.028zM88.358 19.343l-0.508 0.637-1.219 0.619c-0.579 0.228-1.13 0.346-1.63 0.346-0.795 0-1.383-0.112-1.78-0.335l-0.611-1.146c0-0.625 0.148-1.114 0.447-1.501 0.303-0.364 0.766-0.663 1.34-0.882 0.561-0.188 1.254-0.34 2.060-0.453 0.711-0.087 2.12-0.25 2.302-0.252l0.221 0.373c-0.032 0.212-0.435 1.849-0.622 2.595zM105.125 4.082l0.009 0.002-4.189 18.606-0.15 0.223c-0.244 0.523-0.779 0.947-1.349 0.947h-2.91l-0.048-0.065c-0.556-0.083-0.916-0.516-0.786-1.090l-0.005-0.013 0.128-0.536 3.918-17.451 0.141-0.607 0.155-0.237c0.253-0.514 0.77-0.931 1.345-0.931h2.803c0.672-0.009 1.083 0.511 0.939 1.152zM115.52 1.869l0.24 0.833v1.936h-0.511v-1.704l-0.034-0.364-0.064-0.288-0.182-0.172-0.335-0.060-0.429 0.105-0.433 0.27 0.009 0.145 0.009 0.159v1.907h-0.508v-1.704l-0.025-0.369-0.075-0.286-0.171-0.172-0.347-0.060-0.424 0.103-0.426 0.259v2.227h-0.506v-2.982h0.508v0.331l0.481-0.304 0.508-0.109 0.529 0.123 0.326 0.355 0.561-0.371 0.551-0.109 0.747 0.302z"></path>
</symbol>
<symbol id="webmoney" viewBox="0 0 129 32">
<path fill="#fff" style="fill: var(--color1, #fff)" d="M113.733 0.802c2.323 0 4.533 0.529 6.516 1.475 0.311 0.139 0.624 0.306 0.935 0.473l-1.36 1.197-2.039-2.088-3.513 3.062-2.068-2.199-6.459 5.707 4.135 4.482-1.614 1.392 4.080 4.482-1.615 1.391 5.836 6.375 3.455-3.118 3.005 3.341c-0.595 0.445-1.247 0.892-1.954 1.281-2.154 1.197-4.647 1.891-7.31 1.891-8.188 0-14.844-6.54-14.844-14.585-0.029-7.99 6.629-14.56 14.816-14.56zM111.013 14.47l3.541-3.118 3.174 3.479-3.542 3.118-3.173-3.479zM113.535 20.483l3.513-3.146 3.201 3.479-3.542 3.118-3.172-3.452zM108.493 8.541l3.54-3.118 3.173 3.48-3.542 3.118-3.172-3.479zM114.979 6.87l2.635-2.338 2.379 2.589-2.634 2.366-2.381-2.617zM119.683 17.588l2.633-2.338 2.381 2.616-2.635 2.34-2.378-2.617zM122.006 22.849l2.635-2.339 2.377 2.589-2.633 2.366-2.379-2.616zM123.082 10.823l1.757-1.559 1.585 1.727-1.755 1.558-1.586-1.726zM120.816 5.673l1.757-1.586 1.586 1.753-1.758 1.559-1.585-1.726zM125.32 15.973l1.757-1.559 1.615 1.726-1.784 1.558-1.587-1.726zM117.416 12.104l2.635-2.338 2.379 2.588-2.634 2.339-2.381-2.589z"></path>
<path fill="#fff" style="fill: var(--color1, #fff)" d="M8.561 10.846h-0.134l-2.509 9.471h-2.050l-3.078-13.455h2.127l2.128 10.040h0.133l2.469-10.040h1.691l2.641 10.040h0.133l1.938-10.040h2.223l-3.079 13.455h-2.052l-2.583-9.471z"></path>
<path fill="#fff" style="fill: var(--color1, #fff)" d="M18.975 14.584h4.35c-0.094-1.992-1.064-2.788-2.089-2.788-1.159 0-2.052 0.892-2.26 2.788zM24.844 18.152v1.443c-0.855 0.493-1.994 0.873-3.363 0.873-3.191 0-4.502-1.974-4.502-4.972 0-2.886 1.463-4.973 4.312-4.973 2.374 0 3.838 1.538 3.838 4.631v0.702h-6.194c0 2.277 0.93 3.283 2.888 3.283 1.026 0 1.976-0.361 3.020-0.986z"></path>
<path fill="#fff" style="fill: var(--color1, #fff)" d="M29.55 18.947c0.608 0.266 1.273 0.305 1.749 0.305 1.406 0 2.468-0.874 2.468-3.948 0-2.41-0.874-3.188-2.146-3.188-0.761 0-1.311 0.21-2.071 0.626v6.205zM29.57 11.338c0.569-0.303 1.537-0.703 2.564-0.703 2.356 0 3.629 1.632 3.629 4.669 0 3.549-1.71 5.276-4.464 5.276-1.008 0-2.566-0.323-3.706-0.931v-13.245l1.977-0.474v5.408z"></path>
<path fill="#fff" style="fill: var(--color1, #fff)" d="M44.313 17.462h0.095l4.065-10.609h2.357v13.456h-2.052v-9.755h-0.171l-3.876 9.755h-1.215l-3.877-9.527h-0.17v9.527h-1.71v-13.456h2.299l4.255 10.609z"></path>
<path fill="#fff" style="fill: var(--color1, #fff)" d="M59.214 15.496c0-2.562-1.044-3.643-2.336-3.643-1.254 0-2.337 1.081-2.337 3.643 0 2.6 0.989 3.643 2.337 3.643s2.336-1.043 2.336-3.643zM52.547 15.496c0-3.322 1.824-4.973 4.331-4.973 2.509 0 4.332 1.651 4.332 4.973 0 3.245-1.729 4.972-4.332 4.972s-4.331-1.728-4.331-4.972z"></path>
<path fill="#fff" style="fill: var(--color1, #fff)" d="M62.712 11.928c0.855-0.513 2.661-1.405 4.845-1.405 2.28 0 3.133 0.892 3.133 2.846v6.871h-1.974v-6.434c0-1.499-0.74-1.765-1.71-1.765-0.759 0-1.729 0.342-2.318 0.684v7.515h-1.976v-8.312h-0z"></path>
<path fill="#fff" style="fill: var(--color1, #fff)" d="M74.872 14.584h4.35c-0.094-1.992-1.064-2.788-2.090-2.788-1.159 0-2.051 0.892-2.261 2.788zM80.741 18.152v1.443c-0.854 0.493-1.994 0.873-3.362 0.873-3.19 0-4.502-1.974-4.502-4.972 0-2.886 1.462-4.973 4.312-4.973 2.376 0 3.839 1.538 3.839 4.631v0.702h-6.194c0 2.277 0.931 3.283 2.888 3.283 1.025 0 1.976-0.361 3.019-0.986z"></path>
<path fill="#fff" style="fill: var(--color1, #fff)" d="M88.921 10.523h2.033l-3.439 9.488c-0.951 2.619-2.109 3.986-4.293 3.986v-1.555c1.293 0 2.089-1.025 2.546-2.431l-3.648-9.488h2.090l2.432 6.984h0.114l2.165-6.984z"></path>
<path fill="#fff" style="fill: var(--color1, #fff)" opacity="0.5" d="M21.314 29.058v-0.819c0.705 0.356 1.375 0.534 2.010 0.534 0.529 0 0.934-0.096 1.218-0.291 0.283-0.193 0.425-0.455 0.425-0.785s-0.117-0.578-0.349-0.743c-0.232-0.165-0.667-0.369-1.302-0.61-0.221-0.082-0.361-0.136-0.425-0.162-0.063-0.025-0.185-0.076-0.368-0.152s-0.302-0.133-0.358-0.171c-0.057-0.039-0.152-0.097-0.288-0.172-0.135-0.077-0.226-0.145-0.274-0.204-0.047-0.061-0.112-0.138-0.194-0.23s-0.137-0.183-0.165-0.276c-0.028-0.092-0.055-0.198-0.080-0.319s-0.038-0.251-0.038-0.391c0-0.54 0.2-0.974 0.599-1.304 0.4-0.33 0.952-0.495 1.657-0.495 0.623 0 1.243 0.114 1.859 0.343v0.866c-0.598-0.292-1.195-0.437-1.793-0.437-0.422 0-0.736 0.087-0.944 0.265s-0.312 0.413-0.312 0.705c0 0.311 0.104 0.547 0.312 0.71s0.579 0.342 1.114 0.538c0.918 0.337 1.551 0.641 1.897 0.915 0.346 0.272 0.519 0.68 0.519 1.219 0 0.566-0.238 1.028-0.713 1.387s-1.128 0.538-1.959 0.538c-0.761 0-1.444-0.153-2.048-0.458zM30.918 29.372h-0.897l-0.066-0.552c-0.542 0.445-1.082 0.668-1.624 0.668-0.453 0-0.804-0.122-1.052-0.367s-0.373-0.553-0.373-0.929c0-0.197 0.036-0.386 0.108-0.567s0.192-0.357 0.359-0.528c0.167-0.172 0.418-0.309 0.755-0.415s0.741-0.157 1.213-0.157h0.585v-0.257c0-0.425-0.079-0.715-0.236-0.871s-0.422-0.233-0.793-0.233c-0.453 0-1.010 0.186-1.67 0.562v-0.762c0.68-0.311 1.346-0.468 2.001-0.468 0.635 0 1.076 0.131 1.321 0.392 0.246 0.26 0.368 0.654 0.368 1.18v3.305zM29.936 27.191h-0.501c-1.032 0-1.548 0.308-1.548 0.924 0 0.217 0.069 0.372 0.208 0.471s0.312 0.147 0.52 0.147c0.264 0 0.519-0.064 0.764-0.191 0.245-0.126 0.431-0.272 0.557-0.437v-0.915zM32.451 31.277v-6.086c0.277-0.21 0.604-0.379 0.982-0.506s0.748-0.191 1.114-0.191c1.308 0 1.963 0.797 1.963 2.392 0 0.825-0.17 1.457-0.51 1.895-0.34 0.439-0.827 0.657-1.463 0.657-0.441 0-0.809-0.111-1.104-0.332v2.171h-0.982zM33.423 25.514v2.887c0.126 0.12 0.284 0.209 0.476 0.27s0.361 0.090 0.505 0.090c0.346 0 0.618-0.134 0.817-0.404s0.297-0.761 0.297-1.471c0-0.578-0.102-1.001-0.306-1.267-0.204-0.268-0.471-0.4-0.798-0.4-0.371 0-0.701 0.098-0.991 0.294zM38.761 24.544v4.828h-0.982v-4.59l0.982-0.238zM37.628 23.143c0-0.171 0.064-0.322 0.193-0.453s0.279-0.195 0.448-0.195c0.17 0 0.32 0.065 0.449 0.195s0.193 0.281 0.193 0.453-0.064 0.323-0.193 0.453c-0.129 0.129-0.279 0.194-0.449 0.194-0.169 0-0.319-0.065-0.448-0.194-0.129-0.131-0.193-0.282-0.193-0.453zM42.437 28.819c0.453 0 0.953-0.165 1.501-0.495v0.724c-0.503 0.293-1.060 0.439-1.67 0.439-0.768 0-1.332-0.219-1.694-0.658s-0.543-1.051-0.543-1.838c0-0.75 0.186-1.354 0.557-1.809 0.372-0.457 0.9-0.687 1.586-0.687 0.605 0 1.073 0.198 1.407 0.592s0.5 0.971 0.5 1.733v0.353h-3.076c0 0.566 0.116 0.982 0.349 1.247 0.233 0.268 0.595 0.4 1.086 0.4zM42.144 25.134c-0.295 0-0.544 0.118-0.745 0.352-0.201 0.235-0.327 0.585-0.377 1.047h2.161c-0.025-0.469-0.135-0.819-0.33-1.051s-0.431-0.348-0.708-0.348zM45.33 29.372v-4.171c0.774-0.47 1.576-0.706 2.407-0.706 0.56 0 0.959 0.115 1.198 0.344s0.359 0.59 0.359 1.085v3.448h-0.981v-3.229c0-0.349-0.072-0.584-0.217-0.704-0.145-0.121-0.355-0.181-0.632-0.181-0.377 0-0.761 0.115-1.151 0.343v3.771h-0.982zM51.762 24.725h1.491l-0.236 0.648h-1.255v2.514c0 0.635 0.271 0.953 0.812 0.953 0.208 0 0.418-0.044 0.633-0.133v0.609c-0.296 0.115-0.649 0.172-1.057 0.172-0.472 0-0.818-0.135-1.038-0.406-0.22-0.269-0.33-0.623-0.33-1.062v-3.923l0.981-0.715v1.344zM55.175 24.544v4.828h-0.982v-4.59l0.982-0.238zM54.042 23.143c0-0.171 0.064-0.322 0.193-0.453s0.278-0.195 0.449-0.195c0.17 0 0.32 0.065 0.448 0.195s0.194 0.281 0.194 0.453-0.064 0.323-0.194 0.453c-0.128 0.129-0.278 0.194-0.448 0.194s-0.32-0.065-0.449-0.194c-0.128-0.131-0.193-0.282-0.193-0.453zM61.857 24.877v0.761c-0.472-0.317-0.95-0.475-1.434-0.475-0.245 0-0.447 0.048-0.604 0.143-0.157 0.095-0.236 0.248-0.236 0.456 0 0.198 0.086 0.355 0.259 0.472s0.445 0.237 0.817 0.357c0.208 0.070 0.363 0.124 0.467 0.162 0.104 0.039 0.241 0.103 0.411 0.191 0.17 0.089 0.297 0.177 0.382 0.267s0.162 0.206 0.231 0.352c0.069 0.146 0.103 0.307 0.103 0.485 0 0.439-0.175 0.788-0.523 1.048s-0.817 0.391-1.402 0.391c-0.655 0-1.199-0.14-1.633-0.42v-0.742c0.554 0.33 1.060 0.495 1.52 0.495 0.692 0 1.038-0.228 1.038-0.686 0-0.088-0.021-0.172-0.061-0.247s-0.088-0.138-0.142-0.186c-0.054-0.048-0.14-0.101-0.26-0.163-0.12-0.059-0.22-0.103-0.302-0.132s-0.211-0.074-0.387-0.138c-0.258-0.095-0.463-0.178-0.614-0.248s-0.302-0.161-0.453-0.271c-0.151-0.111-0.262-0.244-0.33-0.396s-0.104-0.333-0.104-0.543c0-0.267 0.063-0.495 0.189-0.685 0.126-0.192 0.29-0.328 0.491-0.41s0.386-0.14 0.552-0.171c0.167-0.033 0.332-0.049 0.496-0.049 0.535 0 1.044 0.127 1.529 0.382zM67.071 29.372h-0.896l-0.067-0.552c-0.541 0.445-1.082 0.668-1.623 0.668-0.453 0-0.804-0.122-1.052-0.367s-0.373-0.553-0.373-0.929c0-0.197 0.036-0.386 0.109-0.567s0.192-0.357 0.359-0.528c0.167-0.172 0.418-0.309 0.755-0.415s0.741-0.157 1.213-0.157h0.586v-0.257c0-0.425-0.079-0.715-0.236-0.871-0.158-0.156-0.422-0.233-0.793-0.233-0.453 0-1.010 0.186-1.671 0.562v-0.762c0.68-0.311 1.346-0.468 2.001-0.468 0.636 0 1.076 0.131 1.321 0.392 0.245 0.26 0.368 0.654 0.368 1.18v3.305zM66.090 27.191h-0.501c-1.032 0-1.548 0.308-1.548 0.924 0 0.217 0.069 0.372 0.208 0.471s0.311 0.147 0.519 0.147c0.264 0 0.518-0.064 0.765-0.191 0.245-0.126 0.431-0.272 0.558-0.437v-0.915zM69.54 24.725h1.491l-0.237 0.648h-1.255v2.514c0 0.635 0.27 0.953 0.811 0.953 0.208 0 0.418-0.044 0.633-0.133v0.609c-0.296 0.115-0.648 0.172-1.058 0.172-0.471 0-0.817-0.135-1.037-0.406-0.22-0.269-0.331-0.623-0.331-1.062v-3.923l0.983-0.715v1.344z"></path>
</symbol>
<symbol id="bitcoin" viewBox="0 0 153 32">
<path fill="#fff" style="fill: var(--color1, #fff)" d="M12.011 31.332c8.486 2.122 17.079-3.057 19.195-11.566s-3.048-17.13-11.533-19.252c-8.483-2.122-17.077 3.058-19.191 11.568-2.116 8.509 3.047 17.128 11.53 19.25zM19.343 9.652c2.194 0.758 3.799 1.894 3.483 4.008-0.228 1.547-1.083 2.296-2.219 2.559 1.559 0.814 2.352 2.062 1.597 4.227-0.938 2.688-3.166 2.915-6.129 2.352l-0.719 2.891-1.738-0.434 0.71-2.852c-0.45-0.112-0.911-0.231-1.385-0.36l-0.712 2.865-1.736-0.434 0.719-2.896c-0.162-0.042-0.325-0.084-0.49-0.127-0.247-0.065-0.497-0.13-0.749-0.193l-2.261-0.565 0.863-1.995c0 0 1.28 0.342 1.263 0.316 0.492 0.122 0.71-0.199 0.796-0.414l1.136-4.569c0.043 0.010 0.084 0.021 0.125 0.031 0.020 0.005 0.040 0.010 0.059 0.015-0.069-0.028-0.132-0.046-0.181-0.058l0.811-3.262c0.021-0.37-0.106-0.837-0.81-1.014 0.027-0.018-1.262-0.315-1.262-0.315l0.462-1.861 2.396 0.6-0.002 0.009c0.36 0.090 0.732 0.175 1.11 0.262l0.712-2.862 1.737 0.434-0.698 2.806c0.466 0.107 0.935 0.214 1.392 0.329l0.693-2.788 1.738 0.434-0.712 2.863zM13.847 20.033c1.418 0.376 4.517 1.197 5.010-0.789 0.505-2.030-2.501-2.707-3.967-3.037-0.164-0.037-0.309-0.069-0.427-0.099l-0.954 3.837c0.097 0.024 0.211 0.054 0.339 0.088zM15.184 14.427c1.182 0.316 3.761 1.007 4.21-0.798 0.459-1.846-2.048-2.402-3.271-2.674-0.138-0.031-0.259-0.058-0.358-0.082l-0.865 3.48c0.082 0.020 0.178 0.046 0.285 0.075z"></path>
<path fill="#fff" style="fill: var(--color1, #fff)" d="M46.421 9.649c1.284 0 2.394 0.231 3.326 0.684 0.937 0.458 1.71 1.074 2.33 1.85 0.612 0.779 1.067 1.69 1.361 2.734 0.292 1.047 0.439 2.172 0.439 3.377 0 1.851-0.338 3.599-1.021 5.247-0.683 1.651-1.609 3.082-2.786 4.303-1.177 1.22-2.567 2.181-4.169 2.892-1.6 0.711-3.34 1.066-5.208 1.066-0.242 0-0.666-0.007-1.266-0.019s-1.289-0.075-2.061-0.179c-0.777-0.109-1.599-0.27-2.466-0.485-0.867-0.211-1.691-0.508-2.466-0.884l6.935-29.225 6.211-0.965-2.483 10.371c0.532-0.24 1.067-0.426 1.602-0.562 0.535-0.134 1.109-0.203 1.723-0.203zM41.211 26.86c0.935 0 1.817-0.231 2.645-0.684 0.831-0.454 1.547-1.066 2.148-1.829 0.6-0.766 1.076-1.63 1.422-2.594s0.522-1.971 0.522-3.017c0-1.286-0.214-2.289-0.642-3.015-0.427-0.722-1.218-1.085-2.365-1.085-0.376 0-0.861 0.072-1.462 0.201-0.603 0.136-1.142 0.42-1.626 0.846l-2.644 11.014c0.159 0.028 0.3 0.055 0.421 0.080 0.118 0.027 0.248 0.047 0.378 0.060 0.137 0.015 0.294 0.023 0.484 0.023s0.427 0.001 0.72 0.001z"></path>
<path fill="#fff" style="fill: var(--color1, #fff)" d="M60.317 31.242h-5.933l5.010-21.145h5.973l-5.051 21.145zM63.204 7.521c-0.828 0-1.579-0.247-2.245-0.743-0.672-0.492-1.004-1.25-1.004-2.272 0-0.562 0.114-1.089 0.339-1.586 0.229-0.496 0.529-0.924 0.904-1.287 0.375-0.36 0.809-0.648 1.302-0.865 0.496-0.213 1.024-0.32 1.586-0.32 0.828 0 1.574 0.247 2.243 0.743 0.666 0.498 1.001 1.256 1.001 2.272 0 0.564-0.113 1.093-0.341 1.589-0.226 0.496-0.526 0.924-0.901 1.287-0.372 0.361-0.81 0.648-1.302 0.863-0.496 0.217-1.022 0.32-1.582 0.32z"></path>
<path fill="#fff" style="fill: var(--color1, #fff)" d="M70.569 4.83l6.214-0.966-1.526 6.233h6.655l-1.202 4.903h-6.615l-1.762 7.396c-0.162 0.617-0.254 1.192-0.28 1.727-0.029 0.538 0.039 0.999 0.199 1.388 0.159 0.39 0.446 0.69 0.862 0.903 0.414 0.216 1.006 0.325 1.783 0.325 0.64 0 1.264-0.061 1.866-0.182 0.599-0.119 1.207-0.285 1.821-0.502l0.442 4.585c-0.802 0.295-1.67 0.549-2.605 0.762-0.937 0.216-2.046 0.321-3.328 0.321-1.843 0-3.272-0.274-4.29-0.821-1.017-0.551-1.735-1.303-2.165-2.255-0.424-0.948-0.614-2.042-0.561-3.274 0.055-1.235 0.241-2.533 0.561-3.9l3.93-16.642z"></path>
<path fill="#fff" style="fill: var(--color1, #fff)" d="M81.65 22.799c0-1.821 0.294-3.539 0.881-5.147 0.587-1.609 1.431-3.017 2.528-4.224 1.092-1.202 2.423-2.154 3.99-2.853 1.559-0.695 3.305-1.045 5.228-1.045 1.204 0 2.28 0.114 3.226 0.343 0.95 0.231 1.81 0.529 2.588 0.903l-2.046 4.666c-0.535-0.217-1.089-0.409-1.663-0.583-0.574-0.177-1.275-0.263-2.104-0.263-1.98 0-3.546 0.685-4.711 2.049-1.161 1.366-1.745 3.204-1.745 5.509 0 1.367 0.294 2.471 0.884 3.317 0.587 0.845 1.671 1.266 3.246 1.266 0.777 0 1.527-0.081 2.245-0.24 0.724-0.161 1.362-0.363 1.925-0.603l0.443 4.783c-0.75 0.292-1.578 0.555-2.486 0.786-0.91 0.223-1.993 0.338-3.248 0.338-1.657 0-3.061-0.243-4.208-0.722-1.148-0.487-2.097-1.132-2.844-1.95-0.751-0.82-1.291-1.778-1.624-2.877s-0.504-2.252-0.504-3.455z"></path>
<path fill="#fff" style="fill: var(--color1, #fff)" d="M108.006 31.803c-1.416 0-2.646-0.216-3.689-0.645-1.040-0.428-1.902-1.030-2.584-1.809-0.683-0.775-1.193-1.694-1.543-2.753s-0.518-2.23-0.518-3.514c0-1.611 0.258-3.221 0.779-4.827 0.519-1.609 1.288-3.055 2.307-4.34 1.011-1.287 2.257-2.339 3.725-3.16 1.467-0.815 3.153-1.225 5.048-1.225 1.39 0 2.614 0.217 3.671 0.645 1.053 0.427 1.92 1.033 2.605 1.809 0.678 0.779 1.194 1.694 1.54 2.755 0.35 1.056 0.521 2.231 0.521 3.516 0 1.606-0.255 3.216-0.76 4.827-0.505 1.603-1.255 3.052-2.245 4.34-0.988 1.285-2.223 2.337-3.707 3.154-1.482 0.817-3.2 1.227-5.151 1.227zM110.971 14.598c-0.88 0-1.657 0.256-2.323 0.762-0.668 0.512-1.229 1.155-1.682 1.931-0.457 0.779-0.796 1.629-1.026 2.553-0.227 0.926-0.338 1.801-0.338 2.632 0 1.342 0.216 2.387 0.64 3.139 0.43 0.748 1.203 1.124 2.326 1.124 0.882 0 1.656-0.254 2.326-0.765 0.664-0.508 1.226-1.152 1.682-1.929 0.454-0.775 0.796-1.628 1.025-2.553 0.224-0.923 0.339-1.803 0.339-2.633 0-1.338-0.215-2.386-0.643-3.137-0.428-0.748-1.204-1.124-2.326-1.124z"></path>
<path fill="#fff" style="fill: var(--color1, #fff)" d="M126.334 31.242h-5.938l5.010-21.145h5.977l-5.049 21.145zM129.216 7.521c-0.827 0-1.577-0.247-2.242-0.743-0.668-0.492-1.004-1.25-1.004-2.272 0-0.562 0.115-1.089 0.341-1.586s0.527-0.924 0.902-1.287c0.373-0.36 0.812-0.648 1.304-0.865 0.493-0.213 1.020-0.32 1.58-0.32 0.83 0 1.58 0.247 2.247 0.743 0.667 0.498 1.004 1.256 1.004 2.272 0 0.564-0.12 1.093-0.344 1.589s-0.525 0.924-0.9 1.287c-0.376 0.361-0.808 0.648-1.301 0.863-0.497 0.217-1.024 0.32-1.587 0.32z"></path>
<path fill="#fff" style="fill: var(--color1, #fff)" d="M135.659 11.059c0.45-0.132 0.953-0.291 1.5-0.464 0.549-0.173 1.161-0.334 1.847-0.479 0.678-0.149 1.442-0.271 2.283-0.364 0.841-0.096 1.799-0.142 2.865-0.142 3.129 0 5.286 0.914 6.476 2.736s1.396 4.316 0.625 7.477l-2.729 11.417h-5.972l2.645-11.177c0.161-0.698 0.288-1.373 0.382-2.032 0.095-0.653 0.089-1.229-0.021-1.727-0.105-0.492-0.354-0.896-0.74-1.208-0.391-0.307-0.983-0.462-1.785-0.462-0.774 0-1.561 0.083-2.364 0.244l-3.889 16.36h-5.975l4.853-20.181z"></path>
</symbol>
</defs>
</svg>
